<?xml version="1.0" standalone="no"?><!-- Generator: Gravit.io --><svg xmlns="http://www.w3.org/2000/svg" xmlns:xlink="http://www.w3.org/1999/xlink" style="isolation:isolate" viewBox="49.904 126.635 639.961 519.867" width="639.961" height="519.867"><g filter="url(#sWvLb3lQdHHVb8i3mF2VQe0zweYpDKEv)"><path d=" M 364.486 236.144 C 369.844 236.958 374.638 240.036 378.866 245.379 L 378.317 248.99 L 375.171 252.04 L 375.395 250.561 L 378.866 256.461 L 378.518 258.757 L 378.277 259.226 C 378.922 259.435 378.866 262 378.117 266.926 L 374.402 268.208 C 374.963 264.489 375.576 262.677 376.229 262.777 C 374.818 272.08 355.424 290.348 318.05 317.594 L 312.771 322.5 C 322.29 323.947 332.586 323.606 343.652 321.478 C 348.498 324.227 356.815 328.063 368.606 332.985 C 378.245 338.812 384.061 347.361 386.045 358.632 C 392.437 365.201 394.794 374.006 393.119 385.06 L 392.345 390.15 C 387.648 421.116 359.223 453.581 307.056 487.536 C 258.098 519.52 217.065 538.762 183.951 545.271 C 150.448 555.078 119.928 561.086 92.393 563.295 L 94.084 552.128 C 97.912 552.71 102.381 552.381 107.499 551.142 L 106.329 558.858 C 106.561 558.782 102.441 558.657 93.96 558.493 L 95.579 547.824 C 98.642 548.289 105.07 545.736 114.874 540.169 C 115.964 540.337 123.363 537.704 137.058 532.285 L 136.264 537.535 L 141.839 538.381 C 138.713 539.812 128.316 543.046 110.649 548.096 L 112.068 538.738 L 113.743 537.648 L 126.385 539.563 C 119.723 542.137 113.88 543.042 108.846 542.277 L 109.788 536.04 C 116.906 529.732 120.208 526.762 119.707 527.135 C 122.765 527.6 124.689 525.259 125.471 520.117 C 130.224 519.043 131.779 519.84 130.144 522.506 L 137.531 523.624 C 135.07 524.369 129.018 524.013 119.395 522.554 C 131.743 513.456 148.957 503.64 171.037 493.107 C 184.668 482.971 221.097 458.663 280.327 420.178 C 298.479 406.03 309.448 392.748 313.236 380.339 L 316.739 382.716 C 316.611 382.808 313.757 382.431 308.174 381.585 L 307.877 383.553 L 312.446 382.231 L 306.042 381.261 C 294.226 379.469 282.058 380.704 269.549 384.96 C 257.822 386.992 248.215 388.335 240.728 388.988 C 240.676 389.317 237.445 390.339 231.029 392.05 L 225.614 391.229 C 222.656 390.784 220.828 390.283 220.131 389.726 C 215.578 389.485 207.462 389.822 195.795 390.74 L 195.971 389.589 C 192.083 390.118 188.993 390.211 186.696 389.862 C 185.819 389.73 177.775 386.664 162.568 380.664 L 163.314 375.738 L 160.825 378.888 C 161.037 378.92 161.406 377.241 161.919 373.846 C 162.12 372.536 163.33 370.816 165.558 368.688 C 165.482 368.455 165.791 366.039 166.488 361.445 C 168.789 361.794 169.486 362.347 168.588 363.105 L 178.107 364.548 C 170.645 365.766 164.504 366.011 159.691 365.281 L 161.186 355.434 C 164.356 355.914 164.556 357.57 161.779 360.391 L 170.809 361.762 L 157.915 364.844 L 159.033 357.462 C 159.514 354.287 176.027 342.46 208.576 321.983 C 220.852 315.562 228.463 310.785 231.401 307.647 L 236.768 303.254 L 247.273 304.849 C 221.782 314.977 183.458 322.989 132.3 328.889 L 133.819 318.877 L 139.342 317.871 L 138.425 323.939 L 143.022 324.64 L 106.962 326.56 L 108.429 316.877 L 115.723 315.294 L 114.826 321.205 L 119.747 321.951 C 115.19 322.488 110.834 322.444 106.673 321.815 L 107.595 315.739 C 111.764 311.113 122.164 305.298 138.785 298.304 L 137.863 304.376 C 130.533 304.725 124.288 306.408 119.13 309.43 L 113.222 308.536 L 99.07 307.731 C 99.287 306.312 100.489 305.763 102.678 306.096 L 92.501 304.552 L 94.02 294.541 L 95.66 294.789 L 94.537 302.176 L 102.746 303.418 C 102.665 303.967 99.062 303.699 91.952 302.621 L 92.874 296.549 L 91.904 297.41 C 94.096 297.743 95.567 295.394 96.333 290.356 C 100.301 289.278 101.303 288.593 99.331 288.292 L 98.209 295.679 L 96.569 295.43 L 97.64 288.372 L 102.878 285.976 C 99.175 284.521 97.611 281.932 98.177 278.212 L 95.892 281.054 C 96.99 281.222 97.391 278.933 97.106 274.188 C 95.359 273.919 94.854 271.326 95.599 266.401 L 93.143 268.212 L 97.078 268.809 L 97.876 263.559 C 99.399 259.423 107.395 256.16 121.864 253.763 C 123.25 249.046 127.663 247.251 135.106 248.381 L 134.829 250.184 L 125.803 248.818 L 124.834 255.218 C 124.28 255.134 124.469 252.088 125.383 246.068 L 132.441 247.134 C 137.695 250.846 139.507 252.573 137.867 252.325 C 139.366 250.537 148.721 249.383 165.931 248.858 C 230.335 241.944 274.198 240.253 297.501 243.788 C 332.31 237.203 354.634 234.65 364.486 236.144 Z " fill="rgb(252,200,63)"/><path d=" M 525.341 192.108 C 524.808 188.16 519.465 185.418 509.321 183.883 C 517.369 189.723 522.707 192.464 525.341 192.108 Z  M 497.509 169.563 L 502.279 168.918 C 515.221 167.17 526.964 173.519 537.509 187.951 L 538.355 194.204 L 527.493 195.671 C 527.184 193.366 527.433 192.721 528.238 193.727 L 535.641 192.729 L 535.152 189.106 C 535.112 188.777 538.607 191.102 545.641 196.072 C 549.909 202.865 552.382 208.789 553.064 213.831 C 553.124 214.272 553.092 216.953 552.98 221.883 L 542.944 223.238 L 542.627 220.933 L 552.006 219.671 L 552.386 222.468 L 541.853 223.887 C 541.22 220.845 542.447 220.4 545.529 222.552 L 544.066 211.695 C 552.875 221.562 558.306 234.063 560.346 249.201 C 562.062 261.927 561.084 289.866 557.412 333.024 C 552.519 376.23 545.629 410.891 536.759 436.99 C 532.783 453.94 528.832 462.685 524.884 463.219 C 519.758 473.287 514.539 481.755 509.209 488.613 L 501.642 489.635 L 500.884 484.04 L 503.108 479.387 L 503.726 483.996 C 508.443 483.359 509.83 484.513 507.882 487.455 L 498.832 488.673 C 499.485 482.777 499.986 481.09 500.327 483.615 L 506.579 482.769 C 491.554 496.413 476.419 504.26 461.173 506.316 L 455.582 507.07 C 438.36 509.394 423.891 506.877 412.18 499.523 C 411.835 499.459 409.246 499.751 404.424 500.4 L 403.803 495.795 C 403.346 492.392 403.607 490.629 404.597 490.497 L 405.639 498.228 C 405.31 498.272 404.352 497.002 402.781 494.425 C 390.052 486.986 382.497 480.689 380.132 475.535 C 379.643 475.262 375.266 470.104 366.986 460.052 L 365.258 447.219 C 372.802 452.682 374.329 455.712 369.832 456.317 L 370.321 459.94 C 370.397 460.489 369.663 460.028 368.124 458.557 L 367.194 451.648 L 375.31 452.229 L 368.898 453.094 C 364.309 443.107 361.118 431.475 359.331 418.201 L 358.489 411.949 C 356.064 393.961 358.353 368.302 365.363 334.968 C 366.854 330.298 370.561 327.565 376.481 326.767 L 377.238 332.363 C 376.846 334.423 376.665 335.565 376.693 335.785 L 376.208 332.162 L 366.83 333.429 C 366.842 333.541 367.836 331.785 369.804 328.17 C 373.455 309.698 378.465 292.215 384.841 275.718 C 390.408 260.672 399.723 243.221 412.797 223.366 C 425.534 206.015 433.27 197.154 436.015 196.785 L 441.442 196.052 C 441.991 200.112 440.757 204.24 437.751 208.444 L 437.085 203.506 C 432.701 204.1 432.047 202.569 435.125 198.913 L 442.696 197.891 L 443.294 202.336 C 443.502 203.871 439.35 213.254 430.841 230.484 C 430.019 231.823 428.308 235.738 425.727 242.227 L 423.951 229.065 C 447.979 192.769 472.496 172.934 497.509 169.563 Z " fill="rgb(252,200,63)"/><path d=" M 608.869 598.598 L 608.869 598.598 L 608.869 598.598 Q 608.869 600.513 608.55 602.587 L 608.55 602.587 L 608.55 602.587 Q 605.04 604.422 598.977 604.422 L 598.977 604.422 L 598.977 604.422 Q 588.127 604.422 588.127 594.53 L 588.127 594.53 L 588.127 593.413 L 588.127 593.413 Q 588.127 593.094 588.286 580.01 L 588.286 580.01 L 588.286 580.01 Q 588.286 579.292 588.406 577.298 L 588.406 577.298 L 588.406 577.298 Q 588.526 575.303 588.526 573.947 L 588.526 573.947 L 588.526 572.351 L 588.526 572.351 Q 588.526 571.394 587.582 571.394 L 587.582 571.394 L 587.582 571.394 Q 586.716 571.394 585.222 571.5 L 585.222 571.5 L 585.222 571.5 Q 583.491 571.713 582.861 571.713 L 582.861 571.713 L 582.861 571.713 Q 582.861 571.152 582.861 568.908 L 582.861 568.908 L 582.861 568.908 Q 582.861 567.867 582.861 566.985 L 582.861 566.985 L 582.861 566.985 Q 589.214 562.177 592.549 553.763 L 592.549 553.763 L 592.549 553.763 Q 593.978 553.604 595.964 553.604 L 595.964 553.604 L 595.964 553.604 Q 597.79 553.604 599.934 553.763 L 599.934 553.763 L 599.934 553.763 Q 599.615 560.624 599.615 562.06 L 599.615 562.06 L 599.615 562.06 Q 599.615 563.815 600.555 563.815 L 600.555 563.815 L 601.652 563.815 L 601.652 563.815 Q 601.417 563.815 608.39 563.496 L 608.39 563.496 L 608.39 563.496 Q 608.39 564.866 608.39 567.766 L 608.39 567.766 L 608.39 567.766 Q 608.39 570.585 608.39 571.713 L 608.39 571.713 L 608.39 571.713 Q 600.79 571.394 600.79 571.394 L 600.79 571.394 L 600.79 571.394 Q 600.007 571.394 599.811 571.593 L 599.811 571.593 L 599.811 571.593 Q 599.615 571.793 599.615 572.67 L 599.615 572.67 L 599.615 572.67 Q 599.519 582.324 599.774 590.86 L 599.774 590.86 L 599.774 590.86 Q 599.855 593.812 600.619 594.729 L 600.619 594.729 L 600.619 594.729 Q 601.384 595.646 604.12 595.646 L 604.12 595.646 L 604.12 595.646 Q 606.133 595.646 608.628 594.609 L 608.628 594.609 L 608.628 594.609 Q 608.869 596.604 608.869 598.598 Z  M 647.865 591.418 L 647.865 591.418 L 647.865 591.418 Q 647.227 596.763 643.398 600.513 L 643.398 600.513 L 643.398 600.513 Q 639.249 604.502 631.272 604.502 L 631.272 604.502 L 631.272 604.502 Q 622.177 604.502 617.47 598.917 L 617.47 598.917 L 617.47 598.917 Q 613.162 593.812 613.162 584.398 L 613.162 584.398 L 613.162 584.398 Q 613.162 574.346 617.869 568.522 L 617.869 568.522 L 617.869 568.522 Q 622.656 562.379 631.351 562.379 L 631.351 562.379 L 631.351 562.379 Q 639.648 562.379 643.956 568.283 L 643.956 568.283 L 643.956 568.283 Q 647.626 573.388 647.626 581.606 L 647.626 581.606 L 647.626 581.606 Q 647.626 583.919 647.387 585.914 L 647.387 585.914 L 647.387 585.914 Q 637.335 585.435 634.702 585.435 L 634.702 585.435 L 634.702 585.435 Q 633.266 585.435 629.836 585.435 L 629.836 585.435 L 629.836 585.435 Q 626.405 585.515 625.129 585.515 L 625.129 585.515 L 625.129 585.515 Q 624.171 585.515 624.171 586.791 L 624.171 586.791 L 624.171 586.791 Q 624.171 590.7 625.926 593.413 L 625.926 593.413 L 625.926 593.413 Q 627.841 596.364 631.351 596.364 L 631.351 596.364 L 631.351 596.364 Q 634.144 596.364 635.899 594.729 L 635.899 594.729 L 635.899 594.729 Q 637.654 593.094 637.893 590.7 L 637.893 590.7 L 637.893 590.7 Q 642.201 591.418 647.865 591.418 Z  M 637.095 577.377 L 637.095 577.377 L 637.095 577.377 Q 637.095 574.027 635.34 572.072 L 635.34 572.072 L 635.34 572.072 Q 633.585 570.118 630.793 570.118 L 630.793 570.118 L 630.793 570.118 Q 627.761 570.118 625.807 572.431 L 625.807 572.431 L 625.807 572.431 Q 623.852 574.745 623.852 578.016 L 623.852 578.016 L 623.852 578.016 Q 623.852 579.372 624.65 579.372 L 624.65 579.372 L 624.65 579.372 Q 630.873 579.372 635.739 578.973 L 635.739 578.973 L 635.739 578.973 Q 637.095 578.893 637.095 577.377 Z  M 311.617 576.819 L 311.617 578.255 L 311.617 578.255 Q 309.383 578.016 306.591 578.016 L 306.591 578.016 L 306.591 578.016 Q 302.762 578.016 300.528 578.414 L 300.528 578.414 L 300.528 577.138 L 300.528 577.138 Q 300.528 570.357 295.946 570.357 L 295.946 570.357 L 295.946 570.357 Q 292.57 570.357 291.284 573.388 L 291.284 573.388 L 291.284 573.388 Q 289.997 576.42 289.997 583.839 L 289.997 583.839 L 289.997 583.839 Q 289.997 596.364 295.843 596.364 L 295.843 596.364 L 295.843 596.364 Q 301.048 596.364 301.048 588.387 L 301.048 588.387 L 301.048 588.387 Q 304.331 588.865 308.095 588.865 L 308.095 588.865 L 308.095 588.865 Q 310.177 588.865 311.298 588.786 L 311.298 588.786 L 311.298 588.786 Q 311.378 589.504 311.378 590.222 L 311.378 590.222 L 311.378 590.222 Q 311.378 597.242 307.269 600.872 L 307.269 600.872 L 307.269 600.872 Q 303.161 604.502 295.821 604.502 L 295.821 604.502 L 295.821 604.502 Q 287.046 604.502 282.658 598.838 L 282.658 598.838 L 282.658 598.838 Q 278.509 593.572 278.509 584.079 L 278.509 584.079 L 278.509 584.079 Q 278.509 562.459 296.06 562.459 L 296.06 562.459 L 296.06 562.459 Q 311.617 562.459 311.617 576.819 L 311.617 576.819 Z  M 352.523 583.361 L 352.523 583.361 L 352.523 583.361 Q 352.523 604.502 335.371 604.502 L 335.371 604.502 L 335.371 604.502 Q 317.421 604.502 317.421 583.6 L 317.421 583.6 L 317.421 583.6 Q 317.421 573.708 321.649 568.283 L 321.649 568.283 L 321.649 568.283 Q 326.197 562.459 334.972 562.459 L 334.972 562.459 L 334.972 562.459 Q 343.588 562.459 348.056 567.924 L 348.056 567.924 L 348.056 567.924 Q 352.523 573.388 352.523 583.361 Z  M 341.035 583.52 L 341.035 583.52 L 341.035 583.52 Q 341.035 576.136 339.661 573.246 L 339.661 573.246 L 339.661 573.246 Q 338.287 570.357 334.972 570.357 L 334.972 570.357 L 334.972 570.357 Q 331.819 570.357 330.445 573.166 L 330.445 573.166 L 330.445 573.166 Q 328.909 576.297 328.909 584.243 L 328.909 584.243 L 328.909 584.243 Q 328.909 590.905 330.324 593.754 L 330.324 593.754 L 330.324 593.754 Q 331.738 596.604 334.972 596.604 L 334.972 596.604 L 334.972 596.604 Q 341.035 596.604 341.035 583.52 Z  M 394.227 603.544 L 394.227 603.544 L 394.227 603.544 Q 391.394 603.066 388.719 603.066 L 388.719 603.066 L 388.719 603.066 Q 386.201 603.066 382.739 603.544 L 382.739 603.544 L 382.739 603.544 Q 382.739 595.966 382.739 589.424 L 382.739 589.424 L 382.739 589.424 Q 382.739 579.85 382.661 576.34 L 382.661 576.34 L 382.661 576.34 Q 382.583 571.314 378.607 571.314 L 378.607 571.314 L 378.607 571.314 Q 375.332 571.314 373.617 574.186 L 373.617 574.186 L 373.617 574.186 Q 372.682 575.702 372.604 578.574 L 372.604 578.574 L 372.604 578.574 Q 372.448 584.797 372.448 586.392 L 372.448 586.392 L 372.448 586.392 Q 372.448 589.504 372.448 595.567 L 372.448 595.567 L 372.448 595.567 Q 372.448 601.63 372.448 603.544 L 372.448 603.544 L 372.448 603.544 Q 370.244 603.066 367.018 603.066 L 367.018 603.066 L 367.018 603.066 Q 363.95 603.066 360.96 603.544 L 360.96 603.544 L 360.96 603.544 Q 360.96 597.003 360.96 591.418 L 360.96 591.418 L 360.96 591.418 Q 360.96 579.292 360.72 570.118 L 360.72 570.118 L 360.72 570.118 Q 360.641 566.448 359.843 563.496 L 359.843 563.496 L 359.843 563.496 Q 363.543 563.895 365.984 563.895 L 365.984 563.895 L 365.984 563.895 Q 369.133 563.895 371.653 563.496 L 371.653 563.496 L 371.653 563.496 Q 371.889 564.627 371.889 566.162 L 371.889 566.162 L 371.889 566.162 Q 371.889 566.727 371.889 567.778 L 371.889 567.778 L 371.889 567.778 Q 371.889 568.828 371.889 569.393 L 371.889 569.393 L 371.889 569.393 Q 371.889 569.878 372.207 569.878 L 372.207 569.878 L 372.207 569.878 Q 372.287 569.878 372.764 569.001 L 372.764 569.001 L 372.764 569.001 Q 372.923 568.522 373.4 567.485 L 373.4 567.485 L 373.4 567.485 Q 376.659 562.698 383.734 562.698 L 383.734 562.698 L 383.734 562.698 Q 388.742 562.698 391.484 565.69 L 391.484 565.69 L 391.484 565.69 Q 394.227 568.682 394.227 573.867 L 394.227 573.867 L 394.227 574.426 L 394.227 574.426 Q 394.227 576.101 394.227 580.967 L 394.227 580.967 L 394.227 580.967 Q 394.227 585.914 394.227 588.706 L 394.227 588.706 L 394.227 588.706 Q 394.227 599.476 394.227 603.544 Z  M 433.857 591.498 L 433.857 591.498 L 433.857 591.498 Q 433.857 597.242 430.027 600.672 L 430.027 600.672 L 430.027 600.672 Q 425.879 604.502 417.981 604.502 L 417.981 604.502 L 417.981 604.502 Q 402.185 604.502 402.185 591.498 L 402.185 591.498 L 402.185 591.498 Q 404.569 591.897 406.795 591.897 L 406.795 591.897 L 406.795 591.897 Q 409.259 591.897 411.802 591.418 L 411.802 591.418 L 411.802 591.418 Q 411.802 597.082 417.922 597.082 L 417.922 597.082 L 417.922 597.082 Q 423.485 597.082 423.485 593.094 L 423.485 593.094 L 423.485 593.094 Q 423.485 590.222 418.161 588.307 L 418.161 588.307 L 418.161 588.307 Q 409.817 585.116 408.387 584.238 L 408.387 584.238 L 408.387 584.238 Q 403.142 580.967 403.142 574.824 L 403.142 574.824 L 403.142 574.824 Q 403.142 569.559 406.812 566.129 L 406.812 566.129 L 406.812 566.129 Q 410.881 562.379 417.821 562.379 L 417.821 562.379 L 417.821 562.379 Q 432.899 562.379 432.899 575.223 L 432.899 575.223 L 432.899 575.223 Q 430.586 574.824 428.033 574.824 L 428.033 574.824 L 428.033 574.824 Q 425.799 574.824 423.725 575.144 L 423.725 575.144 L 423.725 575.144 Q 423.326 569.798 418.3 569.798 L 418.3 569.798 L 418.3 569.798 Q 413.194 569.798 413.194 573.628 L 413.194 573.628 L 413.194 573.628 Q 413.194 576.5 418.539 578.414 L 418.539 578.414 L 418.539 578.414 Q 427.235 581.606 428.511 582.324 L 428.511 582.324 L 428.511 582.324 Q 433.857 585.594 433.857 591.498 Z  M 473.247 576.819 L 473.247 578.255 L 473.247 578.255 Q 471.013 578.016 468.221 578.016 L 468.221 578.016 L 468.221 578.016 Q 464.392 578.016 462.158 578.414 L 462.158 578.414 L 462.158 577.138 L 462.158 577.138 Q 462.158 570.357 457.576 570.357 L 457.576 570.357 L 457.576 570.357 Q 454.199 570.357 452.913 573.388 L 452.913 573.388 L 452.913 573.388 Q 451.627 576.42 451.627 583.839 L 451.627 583.839 L 451.627 583.839 Q 451.627 596.364 457.473 596.364 L 457.473 596.364 L 457.473 596.364 Q 462.678 596.364 462.678 588.387 L 462.678 588.387 L 462.678 588.387 Q 465.961 588.865 469.724 588.865 L 469.724 588.865 L 469.724 588.865 Q 471.806 588.865 472.927 588.786 L 472.927 588.786 L 472.927 588.786 Q 473.008 589.504 473.008 590.222 L 473.008 590.222 L 473.008 590.222 Q 473.008 597.242 468.899 600.872 L 468.899 600.872 L 468.899 600.872 Q 464.79 604.502 457.451 604.502 L 457.451 604.502 L 457.451 604.502 Q 448.675 604.502 444.288 598.838 L 444.288 598.838 L 444.288 598.838 Q 440.139 593.572 440.139 584.079 L 440.139 584.079 L 440.139 584.079 Q 440.139 562.459 457.69 562.459 L 457.69 562.459 L 457.69 562.459 Q 473.247 562.459 473.247 576.819 L 473.247 576.819 Z  M 492.294 557.513 L 492.294 557.513 L 492.294 557.513 Q 489.854 557.273 486.785 557.273 L 486.785 557.273 L 486.785 557.273 Q 483.952 557.273 480.646 557.513 L 480.646 557.513 L 480.646 557.513 Q 480.886 555.47 480.886 552.327 L 480.886 552.327 L 480.886 552.327 Q 480.886 549.183 480.646 547.062 L 480.646 547.062 L 480.646 547.062 Q 483.873 547.062 486.785 547.062 L 486.785 547.062 L 486.785 547.062 Q 489.775 547.062 492.294 547.062 L 492.294 547.062 L 492.294 547.062 Q 491.975 549.891 491.975 552.327 L 491.975 552.327 L 491.975 552.327 Q 491.975 554.605 492.294 557.513 Z  M 492.294 603.544 L 492.294 603.544 L 492.294 603.544 Q 489.103 603.066 486.789 603.066 L 486.789 603.066 L 486.789 603.066 Q 484.077 603.066 480.646 603.544 L 480.646 603.544 L 480.646 603.544 Q 480.886 595.886 480.886 583.281 L 480.886 583.281 L 480.886 583.281 Q 480.886 569.479 480.646 563.496 L 480.646 563.496 L 480.646 563.496 Q 484.077 563.975 486.63 563.975 L 486.63 563.975 L 486.63 563.975 Q 489.262 563.975 492.294 563.496 L 492.294 563.496 L 492.294 563.496 Q 491.975 574.824 491.975 583.6 L 491.975 583.6 L 491.975 583.6 Q 491.975 593.413 492.294 603.544 Z  M 534.795 591.418 L 534.795 591.418 L 534.795 591.418 Q 534.157 596.763 530.328 600.513 L 530.328 600.513 L 530.328 600.513 Q 526.179 604.502 518.202 604.502 L 518.202 604.502 L 518.202 604.502 Q 509.107 604.502 504.4 598.917 L 504.4 598.917 L 504.4 598.917 Q 500.092 593.812 500.092 584.398 L 500.092 584.398 L 500.092 584.398 Q 500.092 574.346 504.799 568.522 L 504.799 568.522 L 504.799 568.522 Q 509.586 562.379 518.281 562.379 L 518.281 562.379 L 518.281 562.379 Q 526.578 562.379 530.886 568.283 L 530.886 568.283 L 530.886 568.283 Q 534.556 573.388 534.556 581.606 L 534.556 581.606 L 534.556 581.606 Q 534.556 583.919 534.317 585.914 L 534.317 585.914 L 534.317 585.914 Q 524.265 585.435 521.632 585.435 L 521.632 585.435 L 521.632 585.435 Q 520.196 585.435 516.766 585.435 L 516.766 585.435 L 516.766 585.435 Q 513.335 585.515 512.059 585.515 L 512.059 585.515 L 512.059 585.515 Q 511.101 585.515 511.101 586.791 L 511.101 586.791 L 511.101 586.791 Q 511.101 590.7 512.857 593.413 L 512.857 593.413 L 512.857 593.413 Q 514.771 596.364 518.281 596.364 L 518.281 596.364 L 518.281 596.364 Q 521.074 596.364 522.829 594.729 L 522.829 594.729 L 522.829 594.729 Q 524.584 593.094 524.823 590.7 L 524.823 590.7 L 524.823 590.7 Q 529.131 591.418 534.795 591.418 Z  M 524.025 577.377 L 524.025 577.377 L 524.025 577.377 Q 524.025 574.027 522.27 572.072 L 522.27 572.072 L 522.27 572.072 Q 520.515 570.118 517.723 570.118 L 517.723 570.118 L 517.723 570.118 Q 514.691 570.118 512.737 572.431 L 512.737 572.431 L 512.737 572.431 Q 510.782 574.745 510.782 578.016 L 510.782 578.016 L 510.782 578.016 Q 510.782 579.372 511.58 579.372 L 511.58 579.372 L 511.58 579.372 Q 517.803 579.372 522.669 578.973 L 522.669 578.973 L 522.669 578.973 Q 524.025 578.893 524.025 577.377 Z  M 576.34 603.544 L 576.34 603.544 L 576.34 603.544 Q 573.507 603.066 570.832 603.066 L 570.832 603.066 L 570.832 603.066 Q 568.314 603.066 564.852 603.544 L 564.852 603.544 L 564.852 603.544 Q 564.852 595.966 564.852 589.424 L 564.852 589.424 L 564.852 589.424 Q 564.852 579.85 564.774 576.34 L 564.774 576.34 L 564.774 576.34 Q 564.696 571.314 560.719 571.314 L 560.719 571.314 L 560.719 571.314 Q 557.445 571.314 555.73 574.186 L 555.73 574.186 L 555.73 574.186 Q 554.794 575.702 554.716 578.574 L 554.716 578.574 L 554.716 578.574 Q 554.56 584.797 554.56 586.392 L 554.56 586.392 L 554.56 586.392 Q 554.56 589.504 554.56 595.567 L 554.56 595.567 L 554.56 595.567 Q 554.56 601.63 554.56 603.544 L 554.56 603.544 L 554.56 603.544 Q 552.357 603.066 549.131 603.066 L 549.131 603.066 L 549.131 603.066 Q 546.062 603.066 543.072 603.544 L 543.072 603.544 L 543.072 603.544 Q 543.072 597.003 543.072 591.418 L 543.072 591.418 L 543.072 591.418 Q 543.072 579.292 542.833 570.118 L 542.833 570.118 L 542.833 570.118 Q 542.753 566.448 541.955 563.496 L 541.955 563.496 L 541.955 563.496 Q 545.656 563.895 548.097 563.895 L 548.097 563.895 L 548.097 563.895 Q 551.246 563.895 553.766 563.496 L 553.766 563.496 L 553.766 563.496 Q 554.002 564.627 554.002 566.162 L 554.002 566.162 L 554.002 566.162 Q 554.002 566.727 554.002 567.778 L 554.002 567.778 L 554.002 567.778 Q 554.002 568.828 554.002 569.393 L 554.002 569.393 L 554.002 569.393 Q 554.002 569.878 554.32 569.878 L 554.32 569.878 L 554.32 569.878 Q 554.399 569.878 554.876 569.001 L 554.876 569.001 L 554.876 569.001 Q 555.035 568.522 555.512 567.485 L 555.512 567.485 L 555.512 567.485 Q 558.771 562.698 565.846 562.698 L 565.846 562.698 L 565.846 562.698 Q 570.855 562.698 573.597 565.69 L 573.597 565.69 L 573.597 565.69 Q 576.34 568.682 576.34 573.867 L 576.34 573.867 L 576.34 574.426 L 576.34 574.426 Q 576.34 576.101 576.34 580.967 L 576.34 580.967 L 576.34 580.967 Q 576.34 585.914 576.34 588.706 L 576.34 588.706 L 576.34 588.706 Q 576.34 599.476 576.34 603.544 Z  M 314.17 556.954 L 314.17 556.954 L 314.17 556.954 Q 312.415 556.715 310.341 556.715 L 310.341 556.715 L 310.341 556.715 Q 306.432 556.715 303.081 557.194 L 303.081 557.194 L 303.081 557.194 Q 302.921 555.598 302.842 553.125 L 302.842 553.125 L 302.842 553.125 Q 302.842 552.088 302.522 552.088 L 302.522 552.088 L 302.522 552.088 Q 302.283 552.088 301.964 552.677 L 301.964 552.677 L 301.964 552.677 Q 301.645 553.267 300.847 554.367 L 300.847 554.367 L 300.847 554.367 Q 297.656 557.433 292.072 557.433 L 292.072 557.433 L 292.072 557.433 Q 285.37 557.433 281.86 552.098 L 281.86 552.098 L 281.86 552.098 Q 278.589 547.082 278.589 538.005 L 278.589 538.005 L 278.589 538.005 Q 278.589 516.188 292.869 516.188 L 292.869 516.188 L 292.869 516.188 Q 299.89 516.188 301.645 519.937 L 301.645 519.937 L 301.645 519.937 Q 302.124 520.895 302.363 520.895 L 302.363 520.895 L 302.363 520.895 Q 302.602 520.895 302.602 520.334 L 302.602 520.334 L 302.602 520.334 Q 302.522 518.893 302.522 518.572 L 302.522 518.572 L 302.522 518.572 Q 302.443 517.851 302.443 515.689 L 302.443 515.689 L 302.443 515.689 Q 302.443 509.763 302.203 500.232 L 302.203 500.232 L 302.203 500.232 Q 304.597 500.551 308.187 500.551 L 308.187 500.551 L 308.187 500.551 Q 311.218 500.551 313.851 500.232 L 313.851 500.232 L 313.851 500.232 Q 313.612 510.364 313.532 520.576 L 313.532 520.576 L 313.532 533.5 L 313.532 533.5 Q 313.532 544.828 314.17 556.954 Z  M 302.602 535.74 L 302.602 535.74 L 302.602 535.74 Q 302.602 532.806 302.443 529.952 L 302.443 529.952 L 302.443 529.952 Q 302.363 528.05 301.326 526.543 L 301.326 526.543 L 301.326 526.543 Q 299.65 524.086 296.539 524.086 L 296.539 524.086 L 296.539 524.086 Q 290.316 524.086 290.316 536.77 L 290.316 536.77 L 290.316 536.77 Q 290.316 549.375 296.06 549.375 L 296.06 549.375 L 296.06 549.375 Q 299.65 549.375 301.326 546.363 L 301.326 546.363 L 301.326 546.363 Q 302.203 544.777 302.443 542.161 L 302.443 542.161 L 302.443 542.161 Q 302.602 540.417 302.602 535.74 Z  M 335.371 510.922 L 335.371 510.922 L 335.371 510.922 Q 332.931 510.683 329.862 510.683 L 329.862 510.683 L 329.862 510.683 Q 327.029 510.683 323.723 510.922 L 323.723 510.922 L 323.723 510.922 Q 323.963 508.879 323.963 505.736 L 323.963 505.736 L 323.963 505.736 Q 323.963 502.593 323.723 500.472 L 323.723 500.472 L 323.723 500.472 Q 326.95 500.472 329.862 500.472 L 329.862 500.472 L 329.862 500.472 Q 332.853 500.472 335.371 500.472 L 335.371 500.472 L 335.371 500.472 Q 335.052 503.3 335.052 505.736 L 335.052 505.736 L 335.052 505.736 Q 335.052 508.015 335.371 510.922 Z  M 335.371 556.954 L 335.371 556.954 L 335.371 556.954 Q 332.18 556.476 329.866 556.476 L 329.866 556.476 L 329.866 556.476 Q 327.154 556.476 323.723 556.954 L 323.723 556.954 L 323.723 556.954 Q 323.963 549.296 323.963 536.691 L 323.963 536.691 L 323.963 536.691 Q 323.963 522.889 323.723 516.906 L 323.723 516.906 L 323.723 516.906 Q 327.154 517.384 329.707 517.384 L 329.707 517.384 L 329.707 517.384 Q 332.339 517.384 335.371 516.906 L 335.371 516.906 L 335.371 516.906 Q 335.052 528.234 335.052 537.01 L 335.052 537.01 L 335.052 537.01 Q 335.052 546.822 335.371 556.954 Z  M 378.511 556.954 L 378.511 556.954 L 378.511 556.954 Q 375.001 556.715 374.442 556.715 L 374.442 556.715 L 374.442 556.715 Q 369.975 556.715 366.704 557.433 L 366.704 557.433 L 366.704 557.433 Q 366.145 555.245 366.145 553.624 L 366.145 553.624 L 366.145 553.624 Q 366.145 552.327 365.826 552.327 L 365.826 552.327 L 365.826 552.327 Q 365.826 552.327 364.789 553.763 L 364.789 553.763 L 364.789 553.763 Q 361.917 557.752 355.694 557.752 L 355.694 557.752 L 355.694 557.752 Q 350.03 557.752 346.799 554.561 L 346.799 554.561 L 346.799 554.561 Q 343.568 551.37 343.568 545.785 L 343.568 545.785 L 343.568 545.785 Q 343.568 538.127 350.429 535.175 L 350.429 535.175 L 350.429 535.175 Q 354.338 533.42 363.832 532.702 L 363.832 532.702 L 363.832 532.702 Q 365.746 532.542 365.746 529.431 L 365.746 529.431 L 365.746 528.474 L 365.746 528.474 Q 365.746 523.208 360.8 523.208 L 360.8 523.208 L 360.8 523.208 Q 355.295 523.208 355.295 528.872 L 355.295 528.872 L 355.295 528.872 Q 353.7 528.633 351.785 528.633 L 351.785 528.633 L 351.785 528.633 Q 348.833 528.633 345.403 529.351 L 345.403 529.351 L 345.403 529.351 Q 345.403 528.952 345.323 528.314 L 345.323 528.314 L 345.323 528.314 Q 345.323 527.676 345.323 527.516 L 345.323 527.516 L 345.323 527.516 Q 345.323 521.852 349.631 518.86 L 349.631 518.86 L 349.631 518.86 Q 353.939 515.869 361.279 515.869 L 361.279 515.869 L 361.279 515.869 Q 367.821 515.869 372.049 518.342 L 372.049 518.342 L 372.049 518.342 Q 376.676 521.054 376.995 526.08 L 376.995 526.08 L 376.995 526.08 Q 377.234 530.308 377.234 535.733 L 377.234 535.733 L 377.234 535.733 Q 377.234 541.956 377.314 546.663 L 377.314 546.663 L 377.314 546.663 Q 377.394 552.806 378.511 556.954 Z  M 365.986 538.366 L 365.986 538.366 L 365.986 538.366 Q 365.986 537.887 365.507 537.887 L 365.507 537.887 L 365.507 537.887 Q 365.826 537.887 363.034 538.206 L 363.034 538.206 L 363.034 538.206 Q 360.641 538.446 359.364 538.845 L 359.364 538.845 L 359.364 538.845 Q 354.737 540.201 354.737 544.988 L 354.737 544.988 L 354.737 544.988 Q 354.737 547.221 356.123 548.538 L 356.123 548.538 L 356.123 548.538 Q 357.509 549.854 359.648 549.854 L 359.648 549.854 L 359.648 549.854 Q 364.876 549.854 365.509 545.227 L 365.509 545.227 L 365.509 545.227 Q 365.826 542.834 365.826 539.962 L 365.826 539.962 L 365.826 539.962 Q 365.826 539.802 365.986 539.164 L 365.986 539.164 L 365.986 539.164 Q 365.986 538.526 365.986 538.366 Z  M 416.784 544.908 L 416.784 544.908 L 416.784 544.908 Q 416.784 550.652 412.955 554.082 L 412.955 554.082 L 412.955 554.082 Q 408.806 557.912 400.908 557.912 L 400.908 557.912 L 400.908 557.912 Q 385.112 557.912 385.112 544.908 L 385.112 544.908 L 385.112 544.908 Q 387.497 545.307 389.722 545.307 L 389.722 545.307 L 389.722 545.307 Q 392.186 545.307 394.729 544.828 L 394.729 544.828 L 394.729 544.828 Q 394.729 550.492 400.849 550.492 L 400.849 550.492 L 400.849 550.492 Q 406.413 550.492 406.413 546.503 L 406.413 546.503 L 406.413 546.503 Q 406.413 543.631 401.089 541.717 L 401.089 541.717 L 401.089 541.717 Q 392.745 538.526 391.314 537.648 L 391.314 537.648 L 391.314 537.648 Q 386.07 534.377 386.07 528.234 L 386.07 528.234 L 386.07 528.234 Q 386.07 522.969 389.739 519.538 L 389.739 519.538 L 389.739 519.538 Q 393.808 515.789 400.749 515.789 L 400.749 515.789 L 400.749 515.789 Q 415.827 515.789 415.827 528.633 L 415.827 528.633 L 415.827 528.633 Q 413.513 528.234 410.96 528.234 L 410.96 528.234 L 410.96 528.234 Q 408.727 528.234 406.652 528.553 L 406.652 528.553 L 406.652 528.553 Q 406.253 523.208 401.227 523.208 L 401.227 523.208 L 401.227 523.208 Q 396.122 523.208 396.122 527.038 L 396.122 527.038 L 396.122 527.038 Q 396.122 529.91 401.467 531.824 L 401.467 531.824 L 401.467 531.824 Q 410.163 535.015 411.439 535.733 L 411.439 535.733 L 411.439 535.733 Q 416.784 539.004 416.784 544.908 Z " fill="rgb(255,255,255)"/></g><defs><filter id="sWvLb3lQdHHVb8i3mF2VQe0zweYpDKEv" x="-200%" y="-200%" width="400%" height="400%" filterUnits="objectBoundingBox" color-interpolation-filters="sRGB"><feGaussianBlur xmlns="http://www.w3.org/2000/svg" in="SourceGraphic" stdDeviation="6.869774500542445"/><feOffset xmlns="http://www.w3.org/2000/svg" dx="0" dy="0" result="pf_100_offsetBlur"/><feFlood xmlns="http://www.w3.org/2000/svg" flood-color="#000000" flood-opacity="0.2"/><feComposite xmlns="http://www.w3.org/2000/svg" in2="pf_100_offsetBlur" operator="in" result="pf_100_dropShadow"/><feBlend xmlns="http://www.w3.org/2000/svg" in="SourceGraphic" in2="pf_100_dropShadow" mode="normal"/></filter></defs></svg>